<svg width="25" height="25" viewBox="0 0 24.9562 24.9562" fill="none" xmlns="http://www.w3.org/2000/svg">
  <path d="M17.5213 0H7.43375C5.46269 0.00231634 3.57304 0.786428 2.17941 2.1803C0.785779 3.57416 0.00198493 5.46394 0 7.435L0 17.5225C0.00231634 19.4936 0.786428 21.3832 2.1803 22.7768C3.57416 24.1705 5.46394 24.9543 7.435 24.9563H17.5225C19.4936 24.9539 21.3832 24.1698 22.7768 22.776C24.1705 21.3821 24.9543 19.4923 24.9563 17.5213V7.43375C24.9539 5.46269 24.1698 3.57304 22.776 2.17941C21.3821 0.785779 19.4923 0.00198493 17.5213 0V0ZM22.4463 17.5213C22.4463 18.168 22.3189 18.8084 22.0714 19.406C21.8239 20.0035 21.4611 20.5464 21.0038 21.0038C20.5464 21.4611 20.0035 21.8239 19.406 22.0714C18.8084 22.3189 18.168 22.4463 17.5213 22.4463H7.43375C6.12778 22.4459 4.8754 21.9269 3.95206 21.0033C3.02871 20.0797 2.51 18.8272 2.51 17.5213V7.43375C2.51033 6.12778 3.02936 4.8754 3.95294 3.95206C4.87652 3.02871 6.12903 2.51 7.435 2.51H17.5225C18.8285 2.51033 20.0808 3.02936 21.0042 3.95294C21.9275 4.87652 22.4463 6.12903 22.4463 7.435V17.5225V17.5213Z" fill="currentColor"/>
  <path transform="translate(6.02, 6.02)" d="M6.4525 0C4.74179 0.00264558 3.10191 0.683482 1.89237 1.89326C0.682832 3.10303 0.0023142 4.74304 0 6.45375C0.00198429 8.1649 0.682528 9.80541 1.89238 11.0155C3.10222 12.2256 4.7426 12.9064 6.45375 12.9087C8.16511 12.9068 9.80582 12.226 11.0159 11.0159C12.226 9.80582 12.9068 8.16511 12.9087 6.45375C12.9061 4.7426 12.2249 3.10236 11.0146 1.89274C9.80429 0.68313 8.16365 0.00290334 6.4525 0.00125051V0ZM6.4525 10.3988C5.40655 10.3988 4.40344 9.98325 3.66385 9.24365C2.92425 8.50406 2.50875 7.50095 2.50875 6.455C2.50875 5.40905 2.92425 4.40594 3.66385 3.66635C4.40344 2.92675 5.40655 2.51125 6.4525 2.51125C7.49845 2.51125 8.50156 2.92675 9.24115 3.66635C9.98075 4.40594 10.3962 5.40905 10.3962 6.455C10.3962 7.50095 9.98075 8.50406 9.24115 9.24365C8.50156 9.98325 7.49845 10.3988 6.4525 10.3988V10.3988Z" fill="currentColor"/>
  <path transform="translate(17.4, 4.527)" d="M1.54625 3.0925C2.40022 3.0925 3.0925 2.40022 3.0925 1.54625C3.0925 0.692279 2.40022 0 1.54625 0C0.69228 0 0 0.692279 0 1.54625C0 2.40022 0.69228 3.0925 1.54625 3.0925Z" fill="currentColor"/>
</svg>
